<mxfile host="app.diagrams.net" agent="Mozilla/5.0 (Windows NT 10.0; Win64; x64) AppleWebKit/537.36 (KHTML, like Gecko) Chrome/136.0.0.0 Safari/537.36 Avast/136.0.0.0" version="27.1.4">
  <diagram name="Page-1" id="XS3bxD2bUMo8Oki7S9Q8">
    <mxGraphModel dx="1042" dy="527" grid="1" gridSize="10" guides="1" tooltips="1" connect="1" arrows="1" fold="1" page="1" pageScale="1" pageWidth="827" pageHeight="1169" math="0" shadow="0">
      <root>
        <mxCell id="0" />
        <mxCell id="1" parent="0" />
        <mxCell id="LWf87XOFKYBxM4ADmRdx-1" value="Klijentska razina" style="verticalAlign=top;align=left;spacingTop=8;spacingLeft=2;spacingRight=12;shape=cube;size=10;direction=south;fontStyle=4;html=1;rounded=0;shadow=0;comic=0;labelBackgroundColor=none;strokeWidth=1;fontFamily=Verdana;fontSize=12" parent="1" vertex="1">
          <mxGeometry x="120" y="70" width="230" height="150" as="geometry" />
        </mxCell>
        <mxCell id="LWf87XOFKYBxM4ADmRdx-2" value="Web razina" style="verticalAlign=top;align=left;spacingTop=8;spacingLeft=2;spacingRight=12;shape=cube;size=10;direction=south;fontStyle=4;html=1;rounded=0;shadow=0;comic=0;labelBackgroundColor=none;strokeWidth=1;fontFamily=Verdana;fontSize=12" parent="1" vertex="1">
          <mxGeometry x="410" y="70" width="240" height="150" as="geometry" />
        </mxCell>
        <mxCell id="LWf87XOFKYBxM4ADmRdx-3" value="Aplikacijska razina" style="verticalAlign=top;align=left;spacingTop=8;spacingLeft=2;spacingRight=12;shape=cube;size=10;direction=south;fontStyle=4;html=1;rounded=0;shadow=0;comic=0;labelBackgroundColor=none;strokeWidth=1;fontFamily=Verdana;fontSize=12" parent="1" vertex="1">
          <mxGeometry x="710" y="70" width="250" height="270" as="geometry" />
        </mxCell>
        <mxCell id="LWf87XOFKYBxM4ADmRdx-4" value="Korisničko&amp;nbsp;&lt;div&gt;računalo&lt;/div&gt;" style="shape=component;align=left;spacingLeft=36;rounded=0;shadow=0;comic=0;labelBackgroundColor=none;strokeWidth=1;fontFamily=Verdana;fontSize=12;html=1;" parent="1" vertex="1">
          <mxGeometry x="160" y="115" width="120" height="60" as="geometry" />
        </mxCell>
        <mxCell id="LWf87XOFKYBxM4ADmRdx-5" value="Web&amp;nbsp;&lt;div&gt;aplikacija&lt;/div&gt;" style="shape=component;align=left;spacingLeft=36;rounded=0;shadow=0;comic=0;labelBackgroundColor=none;strokeWidth=1;fontFamily=Verdana;fontSize=12;html=1;" parent="1" vertex="1">
          <mxGeometry x="460" y="115" width="120" height="60" as="geometry" />
        </mxCell>
        <mxCell id="LWf87XOFKYBxM4ADmRdx-6" value="Poslovna&lt;div&gt;logika&lt;/div&gt;" style="shape=component;align=left;spacingLeft=36;rounded=0;shadow=0;comic=0;labelBackgroundColor=none;strokeWidth=1;fontFamily=Verdana;fontSize=12;html=1;" parent="1" vertex="1">
          <mxGeometry x="770" y="130" width="120" height="60" as="geometry" />
        </mxCell>
        <mxCell id="LWf87XOFKYBxM4ADmRdx-7" value="Pristup&amp;nbsp;&lt;div&gt;podacima&lt;/div&gt;" style="shape=component;align=left;spacingLeft=36;rounded=0;shadow=0;comic=0;labelBackgroundColor=none;strokeWidth=1;fontFamily=Verdana;fontSize=12;html=1;" parent="1" vertex="1">
          <mxGeometry x="770" y="230" width="120" height="60" as="geometry" />
        </mxCell>
        <mxCell id="LWf87XOFKYBxM4ADmRdx-8" value="Podatkovna razina" style="verticalAlign=top;align=left;spacingTop=8;spacingLeft=2;spacingRight=12;shape=cube;size=10;direction=south;fontStyle=4;html=1;rounded=0;shadow=0;comic=0;labelBackgroundColor=none;strokeWidth=1;fontFamily=Verdana;fontSize=12" parent="1" vertex="1">
          <mxGeometry x="710" y="410" width="240" height="150" as="geometry" />
        </mxCell>
        <mxCell id="LWf87XOFKYBxM4ADmRdx-9" value="Baza&amp;nbsp;&lt;div&gt;podataka&lt;/div&gt;" style="shape=component;align=left;spacingLeft=36;rounded=0;shadow=0;comic=0;labelBackgroundColor=none;strokeWidth=1;fontFamily=Verdana;fontSize=12;html=1;" parent="1" vertex="1">
          <mxGeometry x="760" y="470" width="120" height="60" as="geometry" />
        </mxCell>
        <mxCell id="LWf87XOFKYBxM4ADmRdx-10" value="" style="endArrow=none;html=1;rounded=0;exitX=0;exitY=0;exitDx=70;exitDy=0;exitPerimeter=0;entryX=0.472;entryY=1.015;entryDx=0;entryDy=0;entryPerimeter=0;" parent="1" source="LWf87XOFKYBxM4ADmRdx-1" target="LWf87XOFKYBxM4ADmRdx-2" edge="1">
          <mxGeometry width="50" height="50" relative="1" as="geometry">
            <mxPoint x="480" y="320" as="sourcePoint" />
            <mxPoint x="530" y="270" as="targetPoint" />
          </mxGeometry>
        </mxCell>
        <mxCell id="LWf87XOFKYBxM4ADmRdx-11" value="" style="endArrow=none;html=1;rounded=0;exitX=0;exitY=0;exitDx=70;exitDy=0;exitPerimeter=0;entryX=0.262;entryY=0.998;entryDx=0;entryDy=0;entryPerimeter=0;" parent="1" source="LWf87XOFKYBxM4ADmRdx-2" target="LWf87XOFKYBxM4ADmRdx-3" edge="1">
          <mxGeometry width="50" height="50" relative="1" as="geometry">
            <mxPoint x="480" y="320" as="sourcePoint" />
            <mxPoint x="530" y="270" as="targetPoint" />
          </mxGeometry>
        </mxCell>
        <mxCell id="LWf87XOFKYBxM4ADmRdx-12" value="" style="endArrow=none;html=1;rounded=0;entryX=0;entryY=0;entryDx=270;entryDy=130;entryPerimeter=0;exitX=0.002;exitY=0.503;exitDx=0;exitDy=0;exitPerimeter=0;" parent="1" source="LWf87XOFKYBxM4ADmRdx-8" target="LWf87XOFKYBxM4ADmRdx-3" edge="1">
          <mxGeometry width="50" height="50" relative="1" as="geometry">
            <mxPoint x="480" y="320" as="sourcePoint" />
            <mxPoint x="530" y="270" as="targetPoint" />
          </mxGeometry>
        </mxCell>
      </root>
    </mxGraphModel>
  </diagram>
</mxfile>
